<?xml version="1.0" standalone="no"?>
<!DOCTYPE svg PUBLIC "-//W3C//DTD SVG 20010904//EN"
 "http://www.w3.org/TR/2001/REC-SVG-20010904/DTD/svg10.dtd">
<svg version="1.0" xmlns="http://www.w3.org/2000/svg"
 width="700.000000pt" height="700.000000pt" viewBox="0 0 700.000000 700.000000"
 preserveAspectRatio="xMidYMid meet">
<metadata>
Created by potrace 1.14, written by Peter Selinger 2001-2017
</metadata>
<g transform="translate(0.000000,700.000000) scale(0.100000,-0.100000)"
fill="#000000" stroke="none">
<path d="M3258 6415 c-2 -1 -41 -5 -88 -9 -47 -3 -94 -8 -105 -10 -11 -2 -47
-7 -80 -12 -33 -4 -62 -8 -65 -9 -3 -1 -25 -5 -50 -9 -313 -53 -749 -231
-1032 -420 -283 -189 -547 -434 -721 -671 -20 -27 -40 -54 -45 -60 -50 -63
-173 -267 -232 -385 -106 -212 -209 -504 -244 -690 -52 -285 -60 -371 -60
-605 0 -180 7 -287 30 -428 4 -23 7 -51 9 -62 1 -11 7 -45 13 -75 7 -30 14
-65 17 -77 40 -215 184 -577 320 -809 156 -265 407 -567 606 -729 34 -27 69
-57 78 -66 20 -19 178 -133 251 -181 162 -105 378 -212 570 -281 114 -41 308
-98 385 -112 17 -3 68 -12 115 -20 47 -9 95 -17 105 -19 100 -19 490 -26 635
-12 616 59 1167 293 1630 692 111 95 271 260 350 359 61 76 190 252 190 258 0
2 23 42 51 88 64 106 138 252 185 366 36 86 112 307 120 346 2 11 8 34 13 51
13 39 48 218 56 283 4 26 8 59 11 73 24 141 24 567 -1 721 -2 13 -9 58 -15 99
-7 41 -19 104 -27 140 -8 36 -16 72 -18 80 -20 100 -80 282 -140 425 -309 747
-945 1347 -1710 1612 -98 34 -243 76 -310 89 -11 2 -31 6 -45 9 -14 3 -59 12
-100 19 -70 13 -101 18 -225 32 -49 5 -422 13 -427 9z m392 -119 c47 -4 96 -9
110 -11 237 -36 428 -82 600 -145 136 -50 444 -197 505 -243 5 -4 48 -32 95
-63 71 -48 192 -136 210 -154 3 -3 37 -33 77 -68 106 -93 232 -224 336 -351
134 -165 319 -478 394 -666 110 -281 177 -558 200 -837 18 -215 2 -517 -37
-723 -5 -27 -11 -61 -14 -75 -2 -14 -12 -54 -21 -90 -9 -36 -18 -72 -20 -80
-6 -27 -57 -185 -70 -215 -7 -16 -27 -66 -45 -110 -81 -204 -251 -487 -404
-675 -331 -407 -774 -715 -1263 -879 -169 -57 -365 -104 -488 -117 -27 -3 -56
-7 -62 -9 -51 -17 -383 -24 -543 -11 -851 63 -1623 514 -2096 1222 -242 361
-380 729 -448 1194 -23 158 -25 557 -2 675 2 11 7 45 11 75 8 61 10 73 25 145
6 28 12 60 14 72 8 38 47 175 71 248 213 636 637 1164 1215 1512 98 59 278
148 365 182 33 13 69 27 80 31 183 76 522 150 770 168 117 9 314 7 435 -2z"/>
<path d="M3492 5325 c-44 -14 -203 -14 -254 0 l-28 7 0 -181 0 -181 -92 -1
c-51 0 -138 -2 -193 -4 -55 -1 -244 -6 -420 -10 -285 -6 -531 -13 -560 -14 -7
-1 -11 -172 -10 -528 0 -450 -7 -797 -20 -983 -2 -25 -6 -94 -10 -155 -3 -60
-8 -133 -11 -161 l-4 -51 50 -27 c55 -30 52 -30 270 -10 118 10 158 13 235 19
44 3 103 8 132 11 28 2 89 7 135 9 45 3 108 7 138 10 30 3 98 7 150 10 52 3
119 8 148 10 44 4 52 2 53 -13 1 -21 1 -150 0 -175 -1 -17 -8 -18 -78 -12 -43
3 -89 8 -103 10 -14 2 -52 6 -85 10 -90 10 -201 34 -282 61 -87 29 -134 30
-188 4 -35 -17 -47 -32 -92 -122 -55 -108 -101 -163 -190 -230 -97 -71 -97
-97 0 -249 40 -63 95 -153 122 -201 26 -48 61 -99 76 -114 37 -35 117 -62 176
-58 71 4 242 4 288 0 22 -3 92 -7 155 -11 63 -4 133 -8 155 -10 l40 -3 1 -523
c0 -288 2 -527 2 -531 1 -4 17 -2 35 3 83 25 253 32 351 15 28 -5 47 -5 43 0
-6 11 -21 126 -42 329 -3 33 -8 76 -10 95 -2 19 -7 71 -10 115 -3 44 -8 100
-10 125 -4 50 -17 274 -17 305 -1 35 2 46 10 42 4 -3 54 -8 112 -11 58 -4 121
-9 140 -11 19 -2 73 -7 120 -10 105 -8 201 -29 305 -67 111 -41 159 -44 183
-14 17 22 48 178 56 281 4 47 -18 154 -35 170 -8 7 -48 16 -89 19 -41 3 -84 8
-95 10 -11 2 -58 7 -105 11 -88 7 -115 14 -64 16 63 3 133 -1 205 -12 84 -13
125 -8 133 19 3 9 -1 41 -9 71 -13 51 -14 165 -1 221 7 31 -10 76 -32 85 -10
3 -37 8 -62 10 -134 13 -155 16 -405 69 -104 22 -125 26 -185 32 -79 9 -110
12 -151 13 -35 1 -36 2 -33 34 1 17 5 74 8 126 3 52 7 95 8 97 3 2 46 5 273
19 64 4 250 12 445 20 41 2 165 6 275 10 110 4 216 8 235 10 19 1 41 3 47 4 7
1 12 11 12 24 -2 26 10 413 16 512 2 39 7 167 10 285 4 118 8 251 10 295 2 44
6 175 10 290 4 116 8 242 10 280 1 39 0 75 -2 82 -3 7 -26 24 -51 38 -45 25
-46 26 -226 20 -100 -3 -284 -7 -411 -10 -126 -3 -326 -7 -442 -10 l-213 -6
-1 78 c-1 203 -3 283 -9 282 -3 -1 -24 -7 -48 -14z"/>
</g>
</svg>
